<?xml version="1.0" encoding="UTF-8" standalone="no"?>
<svg
   width="20"
   height="20"
   version="1.1"
   id="svg6"
   sodipodi:docname="favicon.svg"
   inkscape:version="1.1.2 (b8e25be833, 2022-02-05)"
   xmlns:inkscape="http://www.inkscape.org/namespaces/inkscape"
   xmlns:sodipodi="http://sodipodi.sourceforge.net/DTD/sodipodi-0.dtd"
   xmlns="http://www.w3.org/2000/svg"
   xmlns:svg="http://www.w3.org/2000/svg">
  <defs
     id="defs10" />
  <sodipodi:namedview
     id="namedview8"
     pagecolor="#ffffff"
     bordercolor="#999999"
     borderopacity="1"
     inkscape:pageshadow="0"
     inkscape:pageopacity="0"
     inkscape:pagecheckerboard="0"
     showgrid="false"
     inkscape:zoom="13.446429"
     inkscape:cx="4.6480744"
     inkscape:cy="12.345286"
     inkscape:window-width="1920"
     inkscape:window-height="1017"
     inkscape:window-x="-1928"
     inkscape:window-y="-8"
     inkscape:window-maximized="1"
     inkscape:current-layer="g4" />
  <g
     fill="#13183f"
     id="g4">
    <path
       d="M 10.596491,20 C 8.491228,20 6.6608187,19.502924 5.1052631,18.508772 3.5497075,17.51462 2.491228,16.175438 1.9298245,14.491228 l 3.8596491,-1.824562 c 0.4912281,1.02924 1.1578947,1.836258 2,2.421053 0.8421053,0.584796 1.7777778,0.877194 2.8070174,0.877194 0.748538,0 1.321638,-0.152048 1.719298,-0.456141 0.39766,-0.304094 0.596492,-0.725147 0.596492,-1.263158 0,-0.280701 -0.07017,-0.520468 -0.210526,-0.719299 -0.140352,-0.19883 -0.350878,-0.380116 -0.631579,-0.543859 -0.331617,-0.184393 -0.685329,-0.325879 -1.052632,-0.421052 L 7.7543859,11.649123 C 6.1871344,11.204678 4.982456,10.48538 4.1403508,9.491228 3.2982456,8.497076 2.877193,7.321637 2.877193,5.964913 2.877193,4.77193 3.1812865,3.730995 3.7894736,2.842105 4.3976608,1.9532164 5.251462,1.2573099 6.3508771,0.754386 7.4502923,0.251462 8.7134502,0 10.140351,0 12.011695,0 13.65497,0.4385965 15.070176,1.3157895 16.485379,2.192983 17.485379,3.426901 18.070175,5.017544 L 14.175438,6.842105 C 13.894738,6.046784 13.385964,5.409356 12.649122,4.929825 11.912281,4.450293 11.076024,4.210526 10.140351,4.210526 c -0.6783628,0 -1.2105265,0.140351 -1.5964914,0.421053 -0.3859649,0.280702 -0.5789474,0.666666 -0.5789474,1.157895 0,0.25731 0.070176,0.491228 0.2105263,0.701754 0.1403509,0.210527 0.3684211,0.397661 0.6842105,0.561404 0.3157895,0.163743 0.7076024,0.315789 1.175439,0.45614 l 3.052631,0.912281 c 1.590643,0.467836 2.807018,1.175438 3.649122,2.122807 C 17.578947,11.491228 18,12.654971 18,14.035087 c 0,1.192983 -0.309942,2.233918 -0.929825,3.122808 -0.619883,0.888889 -1.479532,1.584795 -2.578946,2.087719 C 13.391812,19.748538 12.093567,20 10.596491,20 Z"
       id="path2"
       sodipodi:nodetypes="ssccssssscccssssssccssssssccsssss"
       style="stroke-width:0.974654;fill:#ffffff"
       inkscape:export-filename="C:\Users\micha\Desktop\gitHUB\FEM-Challnge-2---Sklilled-e-learning-landing-page\logo\light.png"
       inkscape:export-xdpi="300"
       inkscape:export-ydpi="300" />
  </g>
</svg>
