<?xml version="1.0" encoding="UTF-8" standalone="no"?>
<svg
   width="56"
   height="56"
   version="1.1"
   id="svg15"
   sodipodi:docname="icon-animation.svg"
   inkscape:version="1.1.2 (b8e25be833, 2022-02-05)"
   xmlns:inkscape="http://www.inkscape.org/namespaces/inkscape"
   xmlns:sodipodi="http://sodipodi.sourceforge.net/DTD/sodipodi-0.dtd"
   xmlns="http://www.w3.org/2000/svg"
   xmlns:svg="http://www.w3.org/2000/svg">
  <sodipodi:namedview
     id="namedview17"
     pagecolor="#ffffff"
     bordercolor="#999999"
     borderopacity="1"
     inkscape:pageshadow="0"
     inkscape:pageopacity="0"
     inkscape:pagecheckerboard="0"
     showgrid="false"
     inkscape:zoom="9.0787461"
     inkscape:cx="22.635285"
     inkscape:cy="33.154358"
     inkscape:window-width="1920"
     inkscape:window-height="1137"
     inkscape:window-x="-8"
     inkscape:window-y="-8"
     inkscape:window-maximized="1"
     inkscape:current-layer="g13" />
  <defs
     id="defs7">
    <linearGradient
       x1="50%"
       y1="0%"
       x2="50%"
       y2="100%"
       id="a">
      <stop
         stop-color="#FF6F48"
         offset="0%"
         id="stop2" />
      <stop
         stop-color="#F02AA6"
         offset="100%"
         id="stop4" />
    </linearGradient>
  </defs>
  <g
     fill="none"
     fill-rule="evenodd"
     id="g13">
    <path
       d="M 41.63886,10.915052 C 42.957155,9.7530863 43.722465,8.0918024 43.752797,6.337188 A 6.313812,6.313812 0 0 0 37.415653,4.3388783e-5 6.5191392,6.5191392 0 0 0 33.542435,1.4070015 6.5914704,6.5914704 0 0 0 31.549827,5.9848652 6.2764798,6.2764798 0 0 0 41.641193,10.915052 Z M 21.218135,11.97202 c 0,0.116663 -0.116663,0.116663 -0.233326,0.233327 v 0.116663 a 14.718228,14.718228 0 0 0 -6.810798,3.289902 c -1.173632,1.103634 -2.235267,2.321598 -3.168572,3.637558 -2.3472635,3.285235 3.168572,6.453808 5.401506,3.168572 2.932912,-4.11121 6.570471,-5.282509 10.562686,-3.989881 a 331.23014,331.23014 0 0 0 -6.339479,12.08864 c -2.582923,5.04685 -8.096425,9.039064 -13.5002643,5.987156 A 3.2712659,3.2712659 0 1 0 3.6113258,42.019792 15.92686,15.92686 0 0 0 23.920054,38.146574 c 0.116663,0 0.356989,0.116663 0.466653,0.116663 3.499896,1.455957 6.782799,3.392566 9.746043,5.753829 1.406958,1.171299 3.873218,7.151454 5.280177,10.210363 a 3.2479033,3.2479033 0 0 0 4.930186,1.054635 c 0.916973,-0.891306 1.110634,-2.291265 0.471319,-3.397232 -1.64495,-3.397232 -4.344537,-10.329359 -6.575137,-11.98131 a 73.651807,73.651807 0 0 0 -5.515836,-4.111211 l 0.233326,-0.233326 A 39.600155,39.600155 0 0 0 30.609521,34.14736 c 1.997275,-3.754221 3.992216,-7.39178 6.103819,-11.031671 4.923187,1.556286 10.301361,0.44332 14.202577,-2.935246 1.206298,-1.073301 2.270266,-2.295932 3.168573,-3.639892 2.2306,-2.932913 -2.111604,-5.868159 -4.694527,-3.873219 a 1.654284,1.654284 0 0 0 -0.35699,0.47132 10.173031,10.173031 0 0 1 -4.696859,3.873218 c -0.116664,0.116663 -0.233328,0.116663 -0.233328,0.233326 H 43.98379 a 9.673712,9.673712 0 0 1 -8.451082,-1.054635 l 0.235661,-0.235659 h 0.116663 A 0.89364006,0.89364006 0 0 0 35.416045,15.721575 21.680688,21.680688 0 0 0 33.185446,14.428947 16.934829,16.934829 0 0 0 21.206469,11.965021 Z"
       fill="#FFF"
       fill-rule="nonzero"
       id="path11"
       style="fill:#ffffff;stroke-width:2.33326" />
  </g>
</svg>
