<?xml version="1.0" encoding="UTF-8" standalone="no"?>
<svg
   width="56"
   height="56"
   version="1.1"
   id="svg16"
   sodipodi:docname="icon-business.svg"
   inkscape:version="1.1.2 (b8e25be833, 2022-02-05)"
   xmlns:inkscape="http://www.inkscape.org/namespaces/inkscape"
   xmlns:sodipodi="http://sodipodi.sourceforge.net/DTD/sodipodi-0.dtd"
   xmlns:xlink="http://www.w3.org/1999/xlink"
   xmlns="http://www.w3.org/2000/svg"
   xmlns:svg="http://www.w3.org/2000/svg">
  <sodipodi:namedview
     id="namedview18"
     pagecolor="#ffffff"
     bordercolor="#999999"
     borderopacity="1"
     inkscape:pageshadow="0"
     inkscape:pageopacity="0"
     inkscape:pagecheckerboard="0"
     showgrid="false"
     inkscape:zoom="9.078746"
     inkscape:cx="17.127916"
     inkscape:cy="39.102317"
     inkscape:window-width="1920"
     inkscape:window-height="1137"
     inkscape:window-x="-8"
     inkscape:window-y="-8"
     inkscape:window-maximized="1"
     inkscape:current-layer="g14" />
  <defs
     id="defs8">
    <linearGradient
       x1="50%"
       y1="0%"
       x2="50%"
       y2="100%"
       id="a">
      <stop
         stop-color="#FF6F48"
         offset="0%"
         id="stop2" />
      <stop
         stop-color="#F02AA6"
         offset="100%"
         id="stop4" />
    </linearGradient>
    <path
       d="M35 22h-2c0-2.76-2.24-5-5-5s-5 2.24-5 5h-2c-1.1 0-1.99.9-1.99 2L19 36c0 1.1.9 2 2 2h14c1.1 0 2-.9 2-2V24c0-1.1-.9-2-2-2Zm-7-3c1.66 0 3 1.34 3 3h-6c0-1.66 1.34-3 3-3Zm0 10c-2.76 0-5-2.24-5-5h2c0 1.66 1.34 3 3 3s3-1.34 3-3h2c0 2.76-2.24 5-5 5Z"
       id="b" />
  </defs>
  <g
     fill="none"
     fill-rule="evenodd"
     id="g14">
    <use
       fill="#FFF"
       xlink:href="#b"
       id="use12"
       style="fill:#ffffff"
       transform="matrix(2.6666667,0,0,2.6666667,-45.639648,-45.333334)"
       x="0"
       y="0"
       width="100%"
       height="100%" />
  </g>
</svg>
