<?xml version="1.0" encoding="UTF-8" standalone="no"?>
<svg
   width="56"
   height="56"
   version="1.1"
   id="svg16"
   sodipodi:docname="icon-photography.svg"
   inkscape:version="1.1.2 (b8e25be833, 2022-02-05)"
   xmlns:inkscape="http://www.inkscape.org/namespaces/inkscape"
   xmlns:sodipodi="http://sodipodi.sourceforge.net/DTD/sodipodi-0.dtd"
   xmlns:xlink="http://www.w3.org/1999/xlink"
   xmlns="http://www.w3.org/2000/svg"
   xmlns:svg="http://www.w3.org/2000/svg">
  <sodipodi:namedview
     id="namedview18"
     pagecolor="#ffffff"
     bordercolor="#999999"
     borderopacity="1"
     inkscape:pageshadow="0"
     inkscape:pageopacity="0"
     inkscape:pagecheckerboard="0"
     showgrid="false"
     inkscape:zoom="12.839286"
     inkscape:cx="28"
     inkscape:cy="27.961057"
     inkscape:window-width="1920"
     inkscape:window-height="1137"
     inkscape:window-x="-8"
     inkscape:window-y="-8"
     inkscape:window-maximized="1"
     inkscape:current-layer="g14" />
  <defs
     id="defs8">
    <linearGradient
       x1="50%"
       y1="0%"
       x2="50%"
       y2="100%"
       id="a">
      <stop
         stop-color="#FF6F48"
         offset="0%"
         id="stop2" />
      <stop
         stop-color="#F02AA6"
         offset="100%"
         id="stop4" />
    </linearGradient>
    <path
       d="m31 18 1.83 2H36c1.1 0 2 .9 2 2v12c0 1.1-.9 2-2 2H20c-1.1 0-2-.9-2-2V22c0-1.1.9-2 2-2h3.17L25 18h6Zm-3 5c-2.76 0-5 2.24-5 5s2.24 5 5 5 5-2.24 5-5-2.24-5-5-5Zm0 1.8a3.2 3.2 0 1 1 0 6.4 3.2 3.2 0 0 1 0-6.4Z"
       id="b" />
  </defs>
  <g
     fill="none"
     fill-rule="evenodd"
     id="g14">
    <use
       fill="#FFF"
       xlink:href="#b"
       id="use12"
       style="fill:#ffffff"
       transform="matrix(2.8,0,0,2.8,-50.4,-47.6)"
       x="0"
       y="0"
       width="100%"
       height="100%" />
  </g>
</svg>
